<svg width="340" height="118" viewBox="0 0 340 118" fill="none" xmlns="http://www.w3.org/2000/svg">
<g clip-path="url(#clip0_4_7519)">
<path d="M159.077 0.237787C158.485 0.499333 158.343 0.665812 155.452 4.589C154.22 6.22961 153.083 7.75129 152.893 7.96529C152.303 8.53599 151.531 8.88094 150.714 8.94015C150.406 8.94015 148.131 8.4646 145.667 7.89396C144.06 7.41214 142.409 7.09353 140.739 6.9429C140.14 7.10674 139.63 7.49939 139.317 8.03661C139.317 8.22683 138.583 10.2479 137.919 12.5305C137.256 14.8131 136.592 16.8817 136.45 17.1432C136.07 17.7832 135.509 18.2961 134.839 18.6174C133.767 18.8459 132.684 19.0126 131.593 19.1167C129.305 19.1845 127.032 19.5116 124.817 20.0915C124.528 20.2784 124.282 20.5262 124.098 20.8177C123.914 21.1092 123.796 21.4375 123.751 21.7797C123.561 22.7545 123.75 23.3252 126.594 27.5337C128.039 29.745 129.342 31.7184 129.508 31.9087L129.769 32.2653L130.669 31.0051C136.899 22.245 145.835 15.7928 156.092 12.6493C159.689 11.5818 163.391 10.9121 167.133 10.6521H168.555V4.75546L164.811 2.59175C163.274 1.4739 161.571 0.60716 159.764 0.0238037C159.527 0.0640684 159.296 0.136029 159.077 0.237787Z" fill="#006938" style="fill:#006938;fill:color(display-p3 0.0000 0.4118 0.2196);fill-opacity:1;"/>
<path d="M179.785 0.142673C179.596 0.142673 177.7 1.26019 175.544 2.52036L171.635 4.89806V10.6045H172.109L173.53 10.7472C182.998 11.4753 192.051 14.9443 199.593 20.7335C203.361 23.7292 206.722 27.2063 209.592 31.0764C209.854 31.4777 210.156 31.852 210.492 32.1939C210.611 32.1939 216.226 23.8007 216.439 23.2776C216.63 22.757 216.647 22.1885 216.489 21.6571C216.331 21.1256 216.006 20.6598 215.562 20.3293C215.017 19.9726 214.022 19.8062 208.668 19.2117C207.611 19.0607 206.566 18.8383 205.54 18.546C204.814 18.184 204.212 17.6128 203.811 16.9054C203.507 16.1301 203.253 15.3359 203.052 14.5277C202.453 12.2114 201.717 9.93272 200.849 7.70372C200.675 7.41891 200.425 7.18813 200.128 7.03702C199.831 6.88591 199.498 6.82036 199.167 6.84771C198.598 6.84771 194.949 7.65613 191.703 8.48832C190.608 8.93003 189.386 8.93003 188.291 8.48832C187.509 8.08411 187.296 7.87016 184.856 4.51762C182.036 0.665756 181.799 0.380395 181.207 0.0950722C180.982 -0.00670964 180.737 -0.0553201 180.491 -0.0470756C180.244 -0.038831 180.003 0.026095 179.785 0.142673Z" fill="#006938" style="fill:#006938;fill:color(display-p3 0.0000 0.4118 0.2196);fill-opacity:1;"/>
<path d="M168.578 13.006C157.889 13.3625 147.676 17.5263 139.767 24.7517C135.687 28.4807 132.302 32.9089 129.769 37.829C129.154 39.0384 128.616 40.2852 128.157 41.562C128.157 41.776 128.513 41.7522 131.38 41.1816C136.426 40.2305 141.118 39.541 146.733 38.8039C150.263 38.3997 150.5 38.3284 151.614 37.3535C155.93 33.5649 161.311 31.2138 167.015 30.6246C169.708 30.412 172.417 30.4917 175.094 30.8624C178.836 31.5562 182.398 33.0041 185.567 35.1185C186.753 35.9133 187.885 36.7871 188.955 37.734C189.316 38.0616 189.723 38.334 190.163 38.5424C190.4 38.5424 191.419 38.7563 192.532 38.8752C197.484 39.4221 203.858 40.4446 209.426 41.5383L212.909 42.2041C212.386 40.7541 211.769 39.3403 211.061 37.9718C208.385 32.5966 204.672 27.8085 200.137 23.8859C195.602 19.9633 190.335 16.9843 184.642 15.1221C181.452 14.1024 178.165 13.4171 174.833 13.0773C172.751 12.9465 170.663 12.9227 168.578 13.006ZM171.516 18.1894C171.625 18.7301 171.688 19.2788 171.706 19.83C171.848 22.2077 171.895 22.2077 172.488 20.1153L173.009 18.2131H173.815C174.118 18.2154 174.421 18.2554 174.715 18.332C174.854 19.0555 174.957 19.7855 175.023 20.5195C175.236 22.3027 175.284 22.5643 175.378 22.1125C175.473 21.6608 176.113 18.8789 176.184 18.546C176.255 18.2131 176.326 18.3082 177.226 18.4033C177.568 18.4188 177.909 18.4585 178.245 18.5222C178.245 18.5222 176.16 26.012 176.113 26.0595H175.094H174.123L173.98 24.5854C173.696 21.637 173.72 21.6608 173.175 23.9433L172.701 25.9406H171.73H170.687C170.687 25.9406 170.426 24.3 170.142 22.3503C169.858 20.4006 169.621 18.6174 169.574 18.4271V18.0467H170.545C170.875 18.0348 171.204 18.0832 171.516 18.1894ZM159.67 20.5671C159.67 20.8286 159.67 20.8999 158.959 21.209C158.248 21.5181 158.177 21.5895 158.248 21.8986C158.319 22.2077 158.485 22.4692 159.196 22.3027C159.443 22.2287 159.707 22.2287 159.954 22.3027C160.198 22.7324 160.374 23.1977 160.475 23.6818C160.475 23.6818 160.238 23.9434 159.93 24.0623C159.03 24.4427 159.03 24.4427 159.243 24.9658C159.296 25.1287 159.376 25.2814 159.48 25.4176L160.191 25.2035C160.459 25.1142 160.738 25.0662 161.02 25.0609C161.355 25.5335 161.537 26.0979 161.541 26.6777C160.394 27.1505 159.214 27.5399 158.011 27.8428C157.869 27.7001 155.523 20.7097 155.642 20.5671C155.76 20.4244 156.495 20.2104 157.443 19.9013L159.196 19.3069L159.433 19.83C159.545 20.1092 159.64 20.3951 159.717 20.6859L159.67 20.5671ZM183.363 20.044C184.666 20.4244 184.666 20.044 183.363 24.0623C182.7 26.0357 182.131 27.7001 182.107 27.7239C181.437 27.6006 180.779 27.4176 180.141 27.177C180.141 27.177 182.392 20.044 182.51 19.9013C182.629 19.7586 182.51 19.9488 183.339 20.1628L183.363 20.044ZM189.831 22.7545C190.495 23.1349 190.637 23.2776 190.59 23.4916C190.542 23.7056 190.447 24.3 190.329 24.9658C190.21 25.6316 190.092 26.2972 190.068 26.4637C190.045 26.6301 190.068 26.7491 190.068 26.7491C190.453 26.3642 190.766 25.9132 190.992 25.4176C191.226 24.9482 191.504 24.5023 191.822 24.086C192.126 24.2126 192.419 24.3636 192.698 24.5378C193.291 24.8944 193.456 25.0608 193.409 25.2035C193.362 25.3462 189.902 31.4093 189.737 31.5758C189.571 31.7422 189.429 31.5757 188.813 31.2904C188.197 31.0051 188.007 30.7435 188.007 30.6484C188.007 30.5533 188.481 27.3197 188.599 26.7491C188.599 26.5589 188.599 26.749 188.339 27.0581C188.078 27.3672 186.775 29.7687 186.68 29.9114C186.097 29.6448 185.535 29.3349 184.998 28.9841C184.998 28.9841 185.709 27.6288 186.633 26.012C187.272 24.6958 188.025 23.4387 188.884 22.2552L189.831 22.7545ZM153.012 25.6791L155.026 28.9127C155.192 29.1742 155.144 29.2219 154.457 29.6499L153.557 30.1967C153.557 30.1967 153.083 29.7687 152.562 28.9603L151.732 27.6763L151.33 27.8903C151.116 27.8903 150.95 28.1519 150.95 28.1994C151.184 28.6588 151.445 29.1035 151.732 29.5309L152.514 30.7674L152.23 31.0051L151.377 31.5758C150.903 31.8611 150.808 31.8849 150.666 31.7184C150.524 31.552 146.757 25.5602 146.757 25.3938C146.757 25.2273 147.112 25.0133 147.562 24.728L148.392 24.1811L149.126 25.3224C149.363 25.7188 149.624 26.0999 149.908 26.4637L150.311 26.2497L150.69 26.012C150.69 26.012 150.406 25.4651 149.979 24.7993C149.706 24.425 149.497 24.007 149.363 23.5629L150.263 23.0161C150.69 22.7307 151.045 22.5643 151.116 22.6118L153.012 25.6791ZM143.771 29.1268L144.222 29.6974L143.937 30.1015L143.653 30.5058L145.643 32.503L147.633 34.5003L146.946 35.1898C146.714 35.4437 146.452 35.6674 146.164 35.8556C145.441 35.2457 144.753 34.5947 144.103 33.9059L142.16 31.9799L141.734 32.3129L141.307 32.6457L140.715 32.0275L140.123 31.4093L141.615 29.9827C142.117 29.4771 142.647 29.0008 143.203 28.5561C143.427 28.7452 143.619 28.9701 143.771 29.2218V29.1268ZM199.048 29.4834C199.489 29.7361 199.859 30.0985 200.12 30.5357C200.381 30.9729 200.526 31.4703 200.541 31.9799C200.527 32.3942 200.422 32.8002 200.233 33.1688L199.356 32.7646C198.598 32.408 198.503 32.3366 198.503 31.9799C198.503 31.6233 198.29 31.1002 198.053 31.1002C197.483 31.2688 196.958 31.5611 196.513 31.9562C195.91 32.5132 195.461 33.2177 195.21 34.001C195.21 34.4052 195.707 34.6192 196.181 34.4052C196.655 34.1912 196.513 34.1674 196.323 33.6681C196.323 33.6681 196.323 33.2639 196.75 32.9073L197.271 32.3366L198.124 33.2639C199.356 34.5716 199.332 34.5003 198.574 35.1898C196.773 36.8542 194.831 36.878 193.836 35.1898C193.67 34.9852 193.547 34.7493 193.474 34.4961C193.4 34.2429 193.378 33.9775 193.409 33.7157C193.418 33.1744 193.536 32.6405 193.756 32.1461C193.976 31.6517 194.293 31.207 194.688 30.8387C196.063 29.3883 197.674 28.889 199.072 29.5785L199.048 29.4834Z" fill="#006938" style="fill:#006938;fill:color(display-p3 0.0000 0.4118 0.2196);fill-opacity:1;"/>
<path d="M228.76 16.9291C226.729 17.0898 224.749 17.6471 222.931 18.5697C222.311 19.0042 221.826 19.606 221.533 20.3054C221.338 20.9389 221.219 21.5934 221.178 22.2551C221.081 23.7292 220.736 25.1761 220.159 26.5349C219.229 28.6099 217.765 30.399 215.918 31.7183C215.533 31.9642 215.175 32.2512 214.852 32.5743C214.699 33.597 214.651 34.6328 214.709 35.6653C214.865 35.84 215.055 35.9807 215.266 36.0788C215.478 36.177 215.708 36.2305 215.941 36.2359C217.311 36.0003 218.658 35.6503 219.969 35.1898C224.139 33.9296 227.077 30.8386 228.76 25.679C229.47 23.6104 228.997 23.7531 234.422 23.7531L273.777 23.967C312.681 24.181 322.064 24.1811 325.026 23.8482C327.048 23.6591 329.053 23.3093 331.02 22.802C333.513 22.2985 335.875 21.2869 337.962 19.8299C338.839 19.1404 340.095 17.7851 339.953 17.6662C339.81 17.5473 316.259 17.476 287.377 17.3095L232.456 16.9528C231.176 16.8339 229.494 16.8578 228.76 16.9291Z" fill="#006938" style="fill:#006938;fill:color(display-p3 0.0000 0.4118 0.2196);fill-opacity:1;"/>
<path d="M81.1735 17.0243L34.3791 17.3334C15.4244 17.3334 0.0473239 17.5711 -0.0237563 17.6425C-0.0948364 17.7138 0.165794 18.0705 0.497501 18.4747C2.86684 21.2804 8.22156 23.23 16.2062 23.872C18.8125 24.1098 31.986 24.1098 69.232 23.872L103.682 23.6818H110.032L110.293 23.9671C110.604 24.493 110.858 25.051 111.051 25.6316C112.037 28.9821 114.136 31.8933 116.998 33.8822C118.394 34.6806 119.904 35.2581 121.476 35.5941C123.845 36.2836 124.343 36.3074 124.888 35.8081C125.433 35.3088 125.196 35.499 125.125 34.0961C125.155 33.57 125.074 33.0434 124.888 32.5507C123.538 31.4315 122.271 30.2156 121.097 28.9127C120.133 27.5719 119.404 26.0764 118.941 24.4902C118.773 23.7067 118.662 22.9121 118.609 22.1125C118.68 21.0475 118.331 19.9971 117.638 19.188C116.367 18.1818 114.87 17.5041 113.278 17.2145C112.164 16.953 111.856 16.9292 102.9 16.9292C97.8299 16.953 88.0446 16.9767 81.1735 17.0243Z" fill="#006938" style="fill:#006938;fill:color(display-p3 0.0000 0.4118 0.2196);fill-opacity:1;"/>
<path d="M12.2257 27.1295C12.7441 28.1615 13.4062 29.1142 14.1923 29.9589C16.6506 32.4574 19.8526 34.0849 23.3142 34.5955C29.108 35.5251 35.0049 35.6132 40.8237 34.857C43.8327 34.5954 44.4013 34.5479 44.4013 34.429C44.2914 34.2974 44.1539 34.1919 43.9986 34.1199C42.9164 33.306 41.9516 32.3459 41.1316 31.2667C40.456 30.2677 39.9218 29.1794 39.5442 28.033L39.3783 27.4624H30.8487C24.9964 27.4624 21.3714 27.4624 19.4286 27.4624C16.7038 27.3435 13.2919 27.0344 12.5101 26.868C12.1547 26.8442 12.1547 26.8679 12.2257 27.1295Z" fill="#006938" style="fill:#006938;fill:color(display-p3 0.0000 0.4118 0.2196);fill-opacity:1;"/>
<path d="M326.376 27.0105C321.24 27.5862 316.069 27.7849 310.905 27.605C301.427 27.605 300.598 27.605 300.527 27.8666C300.205 28.8232 299.792 29.7467 299.295 30.6246C298.49 31.8784 297.481 32.9876 296.309 33.9058C296.071 34.0466 295.855 34.223 295.67 34.4289C295.67 34.4289 296.12 34.5954 300.266 34.952C303 35.1871 305.744 35.2823 308.488 35.2373C311.515 35.4447 314.556 35.1556 317.491 34.3814C320.898 33.7885 324 32.0432 326.282 29.4358C326.926 28.6737 327.475 27.8353 327.916 26.9392C327.916 26.9392 327.395 26.8679 326.376 27.0105Z" fill="#006938" style="fill:#006938;fill:color(display-p3 0.0000 0.4118 0.2196);fill-opacity:1;"/>
<path d="M72.8571 27.2722C56.5087 27.4149 42.4111 27.6526 42.269 27.7715C42.1268 27.8904 42.9324 29.2457 43.7854 30.1492C45.6183 31.8466 47.815 33.0993 50.2063 33.8109C53.4597 34.9141 56.847 35.5699 60.2759 35.7605C65.7965 36.1172 79.9889 35.1185 101.029 32.8597C103.398 32.622 105.27 32.4555 105.317 32.4793C105.341 32.5405 105.341 32.6084 105.317 32.6696C105.889 34.1078 106.586 35.4923 107.402 36.8067C107.971 37.6416 108.596 38.4361 109.274 39.1844C110.89 41.0185 113.049 42.2851 115.434 42.7985L117.353 43.274C118.256 43.6028 119.246 43.6028 120.149 43.274C120.599 43.06 120.67 42.9412 120.884 42.2041C120.979 41.8916 121.058 41.574 121.121 41.253C120.802 41.0216 120.439 40.8597 120.054 40.7775C117.397 39.8326 115.006 38.2586 113.084 36.1891C111.162 34.1195 109.766 31.6154 109.013 28.889L108.468 27.3197H96.1477L72.8571 27.2722Z" fill="#006938" style="fill:#006938;fill:color(display-p3 0.0000 0.4118 0.2196);fill-opacity:1;"/>
<path d="M231.224 27.2722L230.702 28.7701C229.685 31.6241 228.169 34.2731 226.224 36.5927C224.332 38.4311 222.059 39.8276 219.566 40.6823L218.642 41.0628C218.639 41.4204 218.703 41.7754 218.832 42.109L219.116 43.06L219.874 43.2978C220.704 43.5594 220.964 43.5356 222.481 43.1314L224.518 42.6083C227.412 41.8901 229.941 40.1301 231.626 37.6627C232.579 36.4526 233.375 35.1264 233.996 33.7157C234.169 33.2847 234.367 32.8639 234.588 32.4555C234.588 32.4555 237.479 32.6457 240.867 33.0024C251.955 34.1674 259.822 34.857 269.844 35.5941C274.474 35.909 279.124 35.7736 283.728 35.1899C287.458 34.6679 291.053 33.433 294.319 31.552C295.574 30.6946 296.639 29.5855 297.447 28.2946C297.576 28.0469 297.671 27.783 297.731 27.5099C297.731 27.5099 244.895 27.0581 236.792 27.0581C234.933 26.953 233.069 27.0247 231.224 27.2722Z" fill="#006938" style="fill:#006938;fill:color(display-p3 0.0000 0.4118 0.2196);fill-opacity:1;"/>
<path d="M166.778 33.1451C164.115 33.4645 161.518 34.1943 159.077 35.3087C157.896 35.9065 156.784 36.632 155.76 37.4724L155.5 37.7577H156.826C163.934 37.3535 175.307 37.4011 183.529 37.7577H184.785L184.548 37.4962C183.419 36.5642 182.187 35.7663 180.875 35.1185C178.414 34.0286 175.801 33.323 173.128 33.0262C171.011 32.9057 168.888 32.9455 166.778 33.1451Z" fill="#006938" style="fill:#006938;fill:color(display-p3 0.0000 0.4118 0.2196);fill-opacity:1;"/>
<path d="M234.399 38.4948L232.598 41.2529H232.93C233.214 41.2529 244.35 42.6319 267.688 45.3425C270.599 45.5284 273.519 45.5284 276.431 45.3425C283.041 44.6054 287.282 42.2991 289.557 38.2094C289.912 37.5912 289.936 37.4248 289.794 37.3297C289.652 37.2346 288.68 37.3297 286.737 37.7101C282.476 38.6455 278.108 38.9974 273.753 38.7563C269.868 38.5661 265.579 38.3046 260.722 37.9241C256.315 37.5675 254.396 37.401 244.776 36.45L237.266 35.7129H236.199L234.399 38.4948Z" fill="#006938" style="fill:#006938;fill:color(display-p3 0.0000 0.4118 0.2196);fill-opacity:1;"/>
<path d="M95.9819 36.4739C75.8188 38.5662 64.517 39.2557 59.2097 38.7326C56.9993 38.5345 54.8059 38.177 52.6467 37.6627C51.2488 37.306 50.2774 37.2347 50.0878 37.4011C49.8983 37.5676 50.4432 38.4949 51.2961 39.6362C52.8815 41.7123 55.0528 43.2616 57.5275 44.0824C61.3131 45.2942 65.2893 45.794 69.2558 45.5566C72.3122 45.3664 77.3115 44.8195 96.5268 42.6083L106.194 41.4908C106.508 41.4752 106.818 41.4192 107.118 41.3243C107.118 41.3243 106.739 40.397 105.507 38.5186L103.73 35.8081H102.829C102.379 35.8557 99.2753 36.141 95.9819 36.4739Z" fill="#006938" style="fill:#006938;fill:color(display-p3 0.0000 0.4118 0.2196);fill-opacity:1;"/>
<path d="M39.6865 38.0907C36.6165 38.4003 33.531 38.5274 30.4461 38.4711C28.1446 38.4786 25.8465 38.2956 23.575 37.9242C22.9827 37.9242 22.9827 37.9242 23.575 38.9466C24.4951 40.2613 25.605 41.4313 26.8683 42.4181C30.3513 44.9147 36.4642 46.1511 43.3115 45.6993C45.6809 45.5567 49.5903 45.1524 51.2962 44.9146L52.2676 44.772L51.4858 44.0587C49.8565 42.6069 48.5419 40.8345 47.6238 38.8516L47.0314 37.6389H46.1784L39.6865 38.0907Z" fill="#006938" style="fill:#006938;fill:color(display-p3 0.0000 0.4118 0.2196);fill-opacity:1;"/>
<path d="M292.187 38.9704C291.35 40.6795 290.237 42.2381 288.893 43.5831L287.732 44.7482H288.159C288.799 44.7482 294.627 45.4377 296.996 45.6042C302.059 46.1382 307.171 45.275 311.781 43.1075C313.636 42.0716 315.2 40.5834 316.33 38.7802L317.017 37.7577H316.401L314.435 38.0668C309.788 38.4116 305.12 38.3719 300.479 37.948L294.153 37.52H292.921L292.187 38.9704Z" fill="#006938" style="fill:#006938;fill:color(display-p3 0.0000 0.4118 0.2196);fill-opacity:1;"/>
<path d="M171.895 42.3229V44.2013H175.378C192.649 44.6282 209.794 47.2812 226.39 52.0952C243.244 57.149 259.343 64.4588 274.251 73.8274C277.07 75.6106 282.686 79.3436 283.088 79.724C283.491 80.1044 283.089 80.1995 279.345 85.3591C277.165 88.3312 275.436 90.804 275.483 90.8754L276.881 92.088C277.876 92.9678 278.184 93.158 278.303 93.0154C278.421 92.8727 280.672 89.7579 283.515 85.8823L288.467 79.1772L288.183 78.9395C287.472 78.3926 283.657 75.7057 281.62 74.3504C268.678 65.6589 254.741 58.562 240.109 53.2127C218.712 45.3438 196.171 41.0623 173.388 40.5397H171.824L171.895 42.3229Z" fill="#006938" style="fill:#006938;fill:color(display-p3 0.0000 0.4118 0.2196);fill-opacity:1;"/>
<path d="M161.613 40.6585C149.347 41.0613 137.143 42.5733 125.148 45.1762C102.096 50.0857 80.1028 59.0879 60.2049 71.7587C56.6746 74.1364 51.4147 77.6554 51.4147 77.8218C51.4147 77.9883 60.3944 90.6614 61.2237 91.3985C61.5317 91.6838 61.4369 91.7551 63.0007 90.3285C63.3913 90.0226 63.7278 89.6528 63.9959 89.2347C63.9959 89.1158 57.03 79.3673 56.6272 78.868C56.2244 78.3687 58.0251 77.5841 61.3658 75.4679C76.735 65.5462 93.4323 57.8687 110.956 52.6659C128.007 47.6129 145.641 44.8075 163.413 44.3201C165.783 44.3201 168.152 44.3202 168.484 44.2013H169.266V42.632C169.305 42.0382 169.305 41.4425 169.266 40.8487C169.266 40.6585 168.792 40.6347 165.901 40.6585H161.613Z" fill="#006938" style="fill:#006938;fill:color(display-p3 0.0000 0.4118 0.2196);fill-opacity:1;"/>
<path d="M99.2279 45.2951C83.6139 47.2448 72.0042 48.6001 70.2272 48.719C67.5538 48.8262 64.8761 48.7228 62.2188 48.4098C59.8495 48.1245 59.8494 48.1008 60.7735 49.1945C63.1428 51.7149 66.7205 53.1415 72.786 53.9499C76.6018 54.6322 80.5302 54.2708 84.1588 52.9037C84.7748 52.6659 90.3428 50.6687 96.5268 48.505C102.711 46.3413 107.876 44.4867 107.994 44.4153C108.113 44.344 107.544 44.2727 99.2279 45.2951Z" fill="#006938" style="fill:#006938;fill:color(display-p3 0.0000 0.4118 0.2196);fill-opacity:1;"/>
<path d="M232.243 44.4628C232.361 44.4628 234.612 45.3663 237.337 46.2699C242.265 47.9105 249.018 50.2406 255.652 52.5707C257.42 53.3755 259.283 53.9508 261.196 54.2827C264.426 54.3653 267.656 54.1264 270.839 53.5694C273.893 53.0111 276.722 51.5832 278.99 49.456C279.772 48.6 280.151 48.0769 279.961 48.0769L278.824 48.2671C276.78 48.5994 274.71 48.7506 272.64 48.7189C269.323 48.7189 263.613 48.1244 243.094 45.5803C230.774 44.1061 231.935 44.225 232.243 44.4628Z" fill="#006938" style="fill:#006938;fill:color(display-p3 0.0000 0.4118 0.2196);fill-opacity:1;"/>
<path d="M53.0732 47.8629C49.1895 48.4475 45.2716 48.7732 41.345 48.8378C39.2837 48.8378 37.0802 48.8378 36.4642 48.8378C36.0954 48.7775 35.7193 48.7775 35.3506 48.8378C35.8355 49.6348 36.4252 50.3626 37.1039 51.0015C39.2123 52.9746 41.8771 54.2452 44.7331 54.6394C49.7634 55.4529 54.8975 55.3644 59.8969 54.3779C60.3431 54.3226 60.786 54.2433 61.2237 54.1401C60.8362 53.6307 60.4083 53.1536 59.9443 52.7135C58.7134 51.5131 57.7029 50.1046 56.9589 48.5525C56.5798 47.7916 56.414 47.5776 56.2007 47.5776L53.0732 47.8629Z" fill="#006938" style="fill:#006938;fill:color(display-p3 0.0000 0.4118 0.2196);fill-opacity:1;"/>
<path d="M282.899 48.5049C282.137 50.0594 281.12 51.4741 279.89 52.6896C279.461 53.0934 279.065 53.5307 278.705 53.9974C278.705 54.1163 278.919 54.1638 281.264 54.4729C285.789 55.2463 290.411 55.2463 294.935 54.4729C297.971 54.1 300.8 52.7386 302.991 50.5973C303.595 50.07 304.093 49.4326 304.46 48.7189C304.46 48.7189 303.015 48.7189 301.238 48.7189C299.357 48.7691 297.475 48.7215 295.599 48.5762C292.4 48.2909 284.368 47.4825 283.752 47.4112C283.136 47.3399 283.444 47.4587 282.899 48.5049Z" fill="#006938" style="fill:#006938;fill:color(display-p3 0.0000 0.4118 0.2196);fill-opacity:1;"/>
<path d="M148.818 47.7915C146.613 48.1645 144.503 48.9727 142.611 50.1692C141.353 51.0576 140.3 52.2069 139.524 53.5391C138.748 54.8713 138.266 56.3554 138.111 57.8909C137.956 59.4263 138.131 60.9772 138.625 62.4386C139.12 63.9001 139.921 65.2378 140.976 66.3613C142.663 68.1946 144.95 69.359 147.42 69.6425C151.789 70.1482 156.213 69.5093 160.262 67.788C161.684 67.1223 163.224 66.0523 163.224 65.7194C163.121 65.5156 162.985 65.3306 162.821 65.1725C162.442 64.7445 162.418 64.6256 162.3 63.2703C162.3 62.4857 162.3 61.273 162.3 60.5597V59.2758L162.821 59.0143C163.105 58.8717 163.342 58.6576 163.366 58.5625C163.366 58.0394 163.366 58.0394 157.987 58.3723C156.145 58.5564 154.293 58.6199 152.443 58.5625C152.199 58.4614 151.992 58.287 151.851 58.0632C151.614 57.6352 151.543 57.6114 151.235 57.8254C150.927 58.0394 151.022 58.1346 151.235 60.4885C151.377 61.8675 151.519 63.0088 151.543 63.0326C151.567 63.0564 152.23 62.771 152.23 62.5095C152.241 62.3159 152.31 62.1303 152.428 61.9773C152.547 61.8243 152.709 61.7114 152.893 61.6535C154.698 61.3946 156.521 61.2912 158.343 61.3444C158.453 61.9241 158.501 62.514 158.485 63.1039V64.7445L157.727 65.0536C156.319 65.5155 154.877 65.8654 153.415 66.0998C151.749 66.3431 150.057 66.3431 148.392 66.0998C146.74 65.791 145.251 64.9051 144.188 63.5993C143.126 62.2936 142.558 60.6523 142.587 58.9667C142.459 57.9902 142.561 56.9971 142.887 56.0677C143.212 55.1383 143.75 54.2987 144.459 53.6169C146.15 52.0802 148.317 51.1737 150.595 51.049C152.765 50.8613 154.95 51.1202 157.016 51.8098C157.94 52.1189 158.319 52.4756 158.438 53.07C158.556 53.6644 158.675 53.712 159.054 53.712C159.433 53.712 159.48 53.2603 160.381 51.049C160.973 49.5986 161.47 48.3384 161.47 48.2671C161.47 48.1958 160.902 48.0293 160.712 48.2671C160.523 48.5049 159.646 48.4573 158.343 48.2671C155.21 47.629 151.999 47.4686 148.818 47.7915Z" fill="#006938" style="fill:#006938;fill:color(display-p3 0.0000 0.4118 0.2196);fill-opacity:1;"/>
<path d="M184.571 47.744C182.644 48.0476 180.835 48.8693 179.335 50.1217C178.811 50.6235 178.394 51.2268 178.109 51.895C177.824 52.5632 177.677 53.2824 177.677 54.0093C177.677 54.7361 177.824 55.4554 178.109 56.1236C178.394 56.7918 178.811 57.395 179.335 57.8968C180.828 59.3471 182.344 59.8227 189.594 61.0829C192.698 61.6298 194.617 62.3192 195.091 63.0563C195.223 63.2414 195.315 63.4515 195.362 63.6737C195.409 63.8958 195.411 64.1253 195.366 64.348C195.322 64.5708 195.233 64.7819 195.104 64.9687C194.975 65.1555 194.81 65.3138 194.617 65.434C193.383 66.0997 191.988 66.4046 190.59 66.3139C187.92 66.4778 185.253 65.954 182.842 64.7921C181.751 64.3976 180.802 63.6857 180.117 62.7473L179.572 62.0103L178.245 64.3879C176.753 67.1223 176.753 67.1935 177.937 67.0746C178.466 67.0381 178.991 67.1805 179.43 67.4789C183.258 69.2378 187.45 70.053 191.656 69.8566C193.606 69.866 195.533 69.4353 197.295 68.5964C198.472 68.1 199.425 67.1857 199.972 66.0284C200.387 65.2408 200.604 64.3635 200.604 63.4725C200.604 62.5816 200.387 61.7041 199.972 60.9165C199.325 59.8914 198.406 59.0679 197.318 58.5388C194.525 57.3297 191.572 56.529 188.552 56.1611C187.116 56.0023 185.715 55.6087 184.406 54.996C182.913 54.2589 182.605 53.189 183.6 52.2379C184.738 51.4551 186.111 51.0937 187.486 51.2154C190.717 51.0494 193.913 51.9515 196.584 53.7834C196.911 53.9556 197.198 54.1949 197.426 54.4857C197.655 54.7766 197.82 55.1125 197.911 55.4715C197.98 55.7094 198.102 55.9287 198.266 56.1135C198.922 55.5868 199.518 54.9887 200.043 54.3302L202.033 52.0952C202.555 51.5483 202.365 51.3344 201.394 51.263C200.465 51.114 199.573 50.7913 198.764 50.3119C196.237 49.024 193.515 48.1644 190.708 47.7678C188.668 47.5663 186.613 47.5583 184.571 47.744Z" fill="#006938" style="fill:#006938;fill:color(display-p3 0.0000 0.4118 0.2196);fill-opacity:1;"/>
<path d="M204.521 48.814C204.521 48.814 204.213 50.0742 203.81 51.5484C203.408 53.0225 203.171 54.2114 203.171 54.2114C203.171 54.2114 203.929 54.2114 204.118 54.0212C204.308 53.831 204.995 53.6882 207.909 54.4016L210.729 55.0436C210.847 55.0436 210.942 55.0436 210.942 55.3527C210.942 55.6618 207.554 70.8552 207.364 71.2594C207.27 71.4429 207.121 71.5924 206.938 71.6874C206.677 71.8062 206.393 72.2818 206.535 72.4244L209.449 73.1379L212.293 73.8035V73.5182C212.284 73.2658 212.192 73.0233 212.032 72.8287L211.748 72.4244L213.288 66.3851C215.017 59.4898 215.847 56.3513 215.918 56.2562C218.033 56.7552 220.115 57.3906 222.149 58.1584C222.285 58.2747 222.377 58.4341 222.41 58.6101C222.41 58.9668 222.718 59.2996 223.002 59.2045C223.286 59.1094 223.405 58.5863 223.997 56.5891L224.803 53.9023C224.803 53.6407 224.092 53.7121 223.689 54.0212C223.286 54.3303 223.689 54.4254 218.95 53.1652L211.226 51.2393C208.454 50.5735 206.061 49.9315 205.895 49.8364C205.686 49.676 205.522 49.4626 205.422 49.2182C205.377 49.0605 205.285 48.9207 205.157 48.8184C205.03 48.7161 204.874 48.6563 204.711 48.6476C204.711 48.6476 204.521 48.7665 204.521 48.814Z" fill="#006938" style="fill:#006938;fill:color(display-p3 0.0000 0.4118 0.2196);fill-opacity:1;"/>
<path d="M130.93 51.0966C127.802 51.7148 127.778 51.7386 127.944 52.0001C128.102 52.18 128.308 52.3118 128.537 52.3806C128.768 52.4559 128.974 52.5961 129.129 52.7847C129.318 53.0463 130.006 56.2087 131.238 62.4382C131.498 63.6746 131.711 64.8159 131.783 65.2201V65.7669L126.76 62.5571L119.178 57.659L116.595 55.9946V55.3051C116.595 54.7106 116.595 54.6156 116.382 54.6869L112.97 55.5904C111.217 56.0421 109.771 56.4464 109.748 56.4939C109.724 56.5415 110.032 57.0646 110.364 57.1359C110.487 57.1635 110.601 57.2213 110.696 57.3044C110.791 57.3874 110.864 57.4929 110.909 57.6114C111.311 58.4674 116.571 75.3014 116.571 75.7056C116.571 76.1098 116.571 76.1574 116.453 76.205C116.364 76.338 116.322 76.4971 116.335 76.6568C116.335 76.9659 116.335 77.0372 116.571 76.9659L119.344 76.1099C120.741 75.682 121.926 75.3252 121.95 75.2777C121.974 75.2301 121.642 74.8259 121.239 74.6594C121.013 74.5604 120.823 74.3946 120.694 74.184C120.552 73.8274 117.187 62.2955 117.069 61.6773C116.951 61.0591 117.069 61.2493 117.211 61.3206C117.353 61.392 131.83 70.6888 132.209 71.0454C132.588 71.4021 132.564 71.3783 132.351 71.7349C132.138 72.0916 132.209 72.5196 132.351 72.5196L135.408 71.949L138.369 71.3782C138.488 71.3782 137.99 70.6412 137.824 70.5699C137.656 70.4405 137.525 70.268 137.445 70.0705C137.208 69.595 133.678 52.6896 133.678 52.119C133.693 51.8606 133.783 51.6123 133.939 51.4057C134.223 51.0253 134.247 50.7161 133.939 50.5497C132.92 50.6274 131.911 50.8107 130.93 51.0966Z" fill="#006938" style="fill:#006938;fill:color(display-p3 0.0000 0.4118 0.2196);fill-opacity:1;"/>
<path d="M169.692 53.8785C169.149 54.0059 168.643 54.2566 168.211 54.611C167.78 54.9655 167.436 55.4144 167.204 55.9233C166.886 56.6775 166.877 57.527 167.179 58.2879C167.48 59.0489 168.068 59.66 168.815 59.9891C169.334 60.2648 169.914 60.4054 170.501 60.398C171.087 60.3905 171.663 60.2355 172.175 59.9468C172.687 59.6581 173.118 59.2451 173.429 58.7457C173.741 58.2463 173.922 57.6764 173.957 57.0884C173.917 56.193 173.545 55.3449 172.914 54.7107C172.476 54.3352 171.957 54.065 171.399 53.9208C170.841 53.7766 170.257 53.7621 169.692 53.8785Z" fill="#006938" style="fill:#006938;fill:color(display-p3 0.0000 0.4118 0.2196);fill-opacity:1;"/>
<path d="M63.5931 56.589L60.9631 57.2073C56.5729 58.403 52.0274 58.9241 47.4816 58.7528C44.8753 58.7528 42.7429 58.7528 42.7429 58.7528C43.389 59.7733 44.1882 60.6875 45.1123 61.4633C46.4799 62.5556 48.0504 63.3639 49.7324 63.841C54.859 65.6426 60.4775 65.4131 65.4411 63.1991C68.9908 61.8685 72.3709 60.1205 75.5108 57.9919L75.8899 57.6828L75.5583 57.5639C74.4603 57.3816 73.3527 57.2625 72.2411 57.2073C70.6063 57.2073 68.3791 56.8982 67.3129 56.7555C66.0845 56.5466 64.8351 56.4907 63.5931 56.589Z" fill="#006938" style="fill:#006938;fill:color(display-p3 0.0000 0.4118 0.2196);fill-opacity:1;"/>
<path d="M270.934 56.803C269.346 57.017 267.214 57.2072 266.195 57.2548C263.707 57.2548 263.613 57.445 264.916 58.3485C269.9 61.7308 275.56 63.9787 281.501 64.9347C283.679 64.9953 285.856 64.8119 287.993 64.3879C290.775 63.9874 293.365 62.7333 295.409 60.7976C296.333 59.9178 297.281 58.7527 297.139 58.6338C296.997 58.5149 295.907 58.6338 294.485 58.6338C289.31 58.9542 284.117 58.4323 279.108 57.0883C276.45 56.3099 273.64 56.2118 270.934 56.803Z" fill="#006938" style="fill:#006938;fill:color(display-p3 0.0000 0.4118 0.2196);fill-opacity:1;"/>
<path d="M104.109 58.1108C100.981 59.2046 100.792 59.2759 100.863 59.5374C100.934 59.7989 101.1 59.8227 101.408 59.8465C102.308 59.8465 102.379 59.9653 102.64 60.6786C103.706 63.5557 108.658 78.1072 108.658 78.3925C108.628 78.6533 108.511 78.8963 108.326 79.0821C108.089 79.3436 108.018 79.51 108.089 79.7002C108.16 79.8904 108.208 79.9618 108.279 79.938L111.43 78.7016C114.344 77.5603 114.486 77.489 114.415 77.2036C114.344 76.9183 114.297 76.8945 113.87 76.8945C113.746 76.9022 113.621 76.8853 113.503 76.8445C113.385 76.8037 113.277 76.7399 113.183 76.6568C112.923 76.3715 106.976 59.0619 106.976 58.5863C106.976 58.1108 107.378 57.7066 107.639 57.7066C107.9 57.7066 107.639 57.2548 107.639 57.0884C106.423 57.2729 105.236 57.6167 104.109 58.1108Z" fill="#006938" style="fill:#006938;fill:color(display-p3 0.0000 0.4118 0.2196);fill-opacity:1;"/>
<path d="M230.205 57.9206C228.301 58.0511 226.473 58.7155 224.927 59.8378C223.381 60.9602 222.181 62.4955 221.462 64.269C220.853 65.6681 220.577 67.1905 220.657 68.7153C220.596 69.6803 220.717 70.6481 221.012 71.5685C221.815 74.3455 223.635 76.7152 226.106 78.2024C227.698 79.2277 229.49 79.8982 231.362 80.1689C233.234 80.4397 235.142 80.3042 236.958 79.7716C238.322 79.358 239.588 78.6705 240.68 77.7509C241.771 76.8313 242.665 75.6987 243.307 74.4218C244.338 72.3318 244.726 69.981 244.421 67.6691C243.971 65.5716 242.916 63.6534 241.388 62.153C239.374 60.0171 236.704 58.6193 233.806 58.1822C232.618 57.9697 231.411 57.882 230.205 57.9206ZM234.801 62.2718C236.702 62.9634 238.309 64.2897 239.351 66.0285C240.028 67.0878 240.344 68.3396 240.251 69.595C240.331 70.9361 239.928 72.2614 239.114 73.328C238.447 74.2624 237.574 75.0297 236.563 75.57C235.552 76.1103 234.43 76.4089 233.285 76.4428C232.129 76.5357 230.966 76.3707 229.88 75.9597C228.795 75.5486 227.813 74.9016 227.006 74.0651C226.269 73.3876 225.678 72.5653 225.271 71.6491C224.863 70.7329 224.647 69.7424 224.637 68.7391C224.639 67.8494 224.821 66.9694 225.171 66.1521C225.521 65.3348 226.033 64.5971 226.675 63.9837C227.4 63.2478 228.282 62.686 229.254 62.3402C230.227 61.9943 231.264 61.8734 232.29 61.9865C233.138 61.9057 233.993 62.0029 234.801 62.2718Z" fill="#006938" style="fill:#006938;fill:color(display-p3 0.0000 0.4118 0.2196);fill-opacity:1;"/>
<path d="M98.0195 60.536L95.2947 61.7962C94.5602 62.1529 94.5129 62.2004 94.6551 62.4144C94.789 62.5941 94.9692 62.7338 95.1763 62.8186C95.816 63.0801 95.7449 62.8186 96.4083 69.9517C96.6927 72.9713 96.9533 75.7295 96.977 76.0862C97.0006 76.4428 96.977 76.7044 96.8348 76.5379C96.6926 76.3715 90.0348 69.4048 88.471 67.6216C87.7602 66.8369 87.7366 66.7656 87.7603 66.1712C87.8186 65.929 87.8186 65.6762 87.7603 65.434C86.7448 65.7734 85.7615 66.2032 84.8222 66.718C82.0501 68.0971 82.0028 68.1208 82.1212 68.4299C82.1634 68.5187 82.2229 68.5981 82.2961 68.6634C82.3694 68.7287 82.4549 68.7788 82.5477 68.8104C82.7607 68.8987 82.9365 69.0583 83.0452 69.2622C83.0452 69.4762 83.685 72.3293 84.2536 75.563C85.462 82.6961 85.4146 82.4583 85.2961 82.4107C85.1777 82.3632 77.2167 75.1113 76.1268 74.0414C75.0369 72.9714 75.3212 73.2329 75.3686 72.7573C75.4278 72.5233 75.4278 72.2781 75.3686 72.044C75.3686 71.8301 75.2265 71.8538 74.7289 72.044C73.0048 72.9305 71.4103 74.0506 69.9902 75.3729C70.178 75.5328 70.3954 75.654 70.6299 75.7294C71.3644 76.0148 71.0327 75.7295 76.6717 80.7227C84.0877 87.2376 85.77 88.7592 85.9833 89.0921C86.0486 89.1951 86.0833 89.3147 86.0833 89.4369C86.0833 89.559 86.0486 89.6787 85.9833 89.7817C85.9288 89.8712 85.9 89.974 85.9 90.0789C85.9 90.1838 85.9288 90.2866 85.9833 90.3761C86.1254 90.5901 86.3386 90.376 88.5421 89.2109C89.8453 88.4501 90.9115 87.7843 90.9115 87.7368C90.9115 87.6892 90.7219 87.3802 90.3902 87.0711C90.0746 86.7739 89.8314 86.4078 89.6794 86.0011C89.3951 84.9549 87.4996 73.4944 87.4996 72.7573C87.4996 72.6384 87.4996 72.5196 87.6655 72.5196C87.8313 72.5196 90.4139 75.2064 95.7686 80.8415L97.593 82.7675V83.5283C97.593 84.0277 97.593 84.2891 97.593 84.3605C98.5107 84.0628 99.399 83.6808 100.247 83.2192C102.332 82.1968 102.782 81.9353 102.616 81.7451C102.522 81.5583 102.361 81.4139 102.166 81.3408C101.945 81.2461 101.75 81.0993 101.597 80.9128C100.686 74.2587 100.14 67.5593 99.9623 60.8451C100.03 60.4357 100.03 60.0181 99.9623 59.6088C99.9623 59.6088 99.062 60.0366 98.0195 60.536Z" fill="#006938" style="fill:#006938;fill:color(display-p3 0.0000 0.4118 0.2196);fill-opacity:1;"/>
<path d="M248.307 64.4355C248.307 64.6019 248.307 64.7921 248.804 65.1725C249.302 65.553 249.397 65.7669 249.397 65.8858C249.397 66.0047 241.625 82.815 241.317 83.1717C241.009 83.5283 241.009 83.4333 240.44 83.3619C239.872 83.2906 239.587 83.3618 239.564 83.7185C239.54 84.0752 245.7 86.8809 245.914 86.8809C246.127 86.8809 246.08 86.8809 246.127 86.6194C246.174 86.3578 246.127 86.2627 245.819 86.0011C245.633 85.8538 245.493 85.6557 245.416 85.4305C245.416 85.4305 246.174 83.7186 247.075 81.8878L248.733 78.5589L250.297 79.3674L254.04 81.3646C256.397 82.7848 258.953 83.8427 261.622 84.5032C262.79 84.5991 263.96 84.3396 264.978 83.7586C265.997 83.1775 266.817 82.3018 267.333 81.2458C267.848 80.2168 268.07 79.0645 267.972 77.9169C267.947 77.1581 267.761 76.4134 267.426 75.7327C267.091 75.0519 266.615 74.4509 266.029 73.97C264.855 72.6999 263.467 71.6457 261.93 70.8553C257.604 68.3794 253.152 66.1333 248.591 64.1263C248.517 64.141 248.45 64.1789 248.399 64.2345C248.348 64.29 248.315 64.3603 248.307 64.4355ZM254.017 71.0217C255.367 71.7112 258.329 73.3994 259.916 74.1841C261.108 74.7572 262.172 75.5659 263.044 76.5618C263.272 77.1567 263.293 77.8114 263.104 78.4199C262.915 79.0284 262.526 79.555 262.001 79.9143C261.599 80.1758 261.457 80.1995 260.675 80.152C259.885 80.0852 259.122 79.8327 258.447 79.4149C255.723 78.0358 250.676 75.2777 250.629 75.1113C251.275 73.4959 252.068 71.944 252.998 70.4749C253.351 70.6319 253.691 70.8146 254.017 71.0217Z" fill="#006938" style="fill:#006938;fill:color(display-p3 0.0000 0.4118 0.2196);fill-opacity:1;"/>
<path d="M164.195 71.9252C133.133 73.0902 103.967 82.7436 75.9136 101.147L73.7812 102.526C72.3474 100.865 71.0255 99.1091 69.8243 97.2713L65.7491 91.6838C65.5832 91.4698 65.4884 91.541 64.2564 92.6348C63.767 93.0287 63.3221 93.4752 62.9296 93.9663C62.9296 93.9663 72.407 107.281 72.6676 107.638C73.5788 107.171 74.4504 106.63 75.2738 106.021C92.5581 93.9784 111.871 85.1739 132.28 80.033C143.519 77.3374 155.012 75.8549 166.564 75.6106H169.194V71.9252H167.962H164.195Z" fill="#006938" style="fill:#006938;fill:color(display-p3 0.0000 0.4118 0.2196);fill-opacity:1;"/>
<path d="M171.919 73.7085V75.5392H174.478C202.139 76.6172 229.062 84.8042 252.666 99.3161C255.96 101.29 261.125 104.714 264.513 107.067C265.769 107.971 266.882 108.684 266.882 108.661C267.593 107.852 276.644 95.2979 276.597 95.2028C275.759 94.3415 274.856 93.5466 273.895 92.8251L269.986 98.1273C267.877 101.004 266.077 103.382 266.029 103.406C265.982 103.43 264.466 102.478 262.689 101.29C256.219 96.8728 249.459 92.9008 242.454 89.4012C226.387 81.2318 209.102 75.7391 191.277 73.1379C185.378 72.3083 179.437 71.8161 173.483 71.6637H171.943L171.919 73.7085Z" fill="#006938" style="fill:#006938;fill:color(display-p3 0.0000 0.4118 0.2196);fill-opacity:1;"/>
<path d="M162.892 78.8918C160.423 78.9256 157.959 79.1481 155.523 79.5575C156.311 80.331 157.204 80.9876 158.177 81.5073C162.054 83.7469 166.483 84.8394 170.953 84.6584C175.423 84.4775 179.75 83.0306 183.434 80.4849L184.572 79.6289L183.624 79.4863C176.732 78.8547 169.808 78.6562 162.892 78.8918Z" fill="#006938" style="fill:#006938;fill:color(display-p3 0.0000 0.4118 0.2196);fill-opacity:1;"/>
<path d="M146.662 80.3659C141.284 81.1505 137.872 81.7925 132.659 82.9576C132.28 82.9576 131.972 83.1716 131.972 83.2191C132.26 83.756 132.585 84.2723 132.944 84.7645C139.197 93.8408 148.529 100.323 159.196 103.002C162.846 103.952 166.608 104.4 170.379 104.333C173.202 104.376 176.021 104.121 178.79 103.572C190.324 101.366 200.562 94.7722 207.365 85.1688C208.194 84.0038 208.407 83.6234 208.265 83.552C208.123 83.4807 204.711 82.6484 201.868 82.0777C197.366 81.1742 190.755 80.1043 189.571 80.1043C188.386 80.1043 188.505 80.1043 187.059 81.2932C184.117 83.6283 180.731 85.3355 177.108 86.3101C174.788 86.9169 172.397 87.2048 170 87.166C163.723 87.2022 157.622 85.0886 152.704 81.1743C151.567 80.2946 150.951 79.9854 150.335 80.0091C150.192 79.9854 148.51 80.1994 146.662 80.3659ZM149.031 83.0051C149.521 83.4059 149.981 83.843 150.406 84.3128C150.259 84.5757 150.076 84.8161 149.861 85.0262L149.316 85.6206L148.558 85.0498L147.823 84.4792L147.539 84.931L147.254 85.3828L147.515 85.5968L148.107 86.0486L148.415 86.3339L147.799 87.0234L147.183 87.7366L146.591 87.2374L145.999 86.7619L145.572 87.1898L145.146 87.6178L145.833 88.1884L146.544 88.7592L146.307 89.1157C146.109 89.3668 145.895 89.605 145.667 89.829L145.288 90.2095L143.914 88.9493C143.419 88.5274 142.96 88.0664 142.539 87.5703C142.539 87.4277 147.468 81.8876 147.61 81.8638C148.112 82.2422 148.587 82.6554 149.031 83.1003V83.0051ZM192.864 83.98L193.504 84.7645L192.864 84.8835C192.13 85.0262 191.845 85.3114 192.082 85.6681C192.319 86.0247 192.461 85.9058 193.291 85.9772C193.731 85.9267 194.177 85.9848 194.59 86.1464C195.003 86.308 195.37 86.5682 195.66 86.9045C195.937 87.2401 196.125 87.6396 196.209 88.0669C196.293 88.4943 196.269 88.9358 196.139 89.3514C196.01 89.7671 195.779 90.1438 195.468 90.4472C195.156 90.7507 194.775 90.9714 194.357 91.0893C194.001 91.2319 193.978 91.2319 193.433 90.6137C192.532 89.5913 192.532 89.5675 193.291 89.4011C194.049 89.2346 193.978 89.1633 194.072 88.9255C194.167 88.6877 193.836 88.1172 192.84 88.1172C192.502 88.1497 192.16 88.1135 191.835 88.0106C191.511 87.9078 191.21 87.7404 190.952 87.5185C190.693 87.2966 190.481 87.0248 190.33 86.7192C190.178 86.4135 190.089 86.0803 190.068 85.7395C190.022 85.4772 190.041 85.2077 190.124 84.9546C190.207 84.7016 190.35 84.473 190.542 84.2891C190.993 83.8039 191.566 83.4504 192.201 83.2666C192.469 83.5091 192.7 83.7895 192.888 84.0988L192.864 83.98ZM153.865 86.643L154.813 87.1898V87.8793C154.767 88.1068 154.767 88.3414 154.813 88.5689C155.017 88.456 155.207 88.3205 155.381 88.1648L155.902 87.7604L156.945 88.2836L157.987 88.8066L156.518 89.9004C155.713 90.4948 154.978 91.0892 154.884 91.2081C154.575 92.6712 154.401 94.1595 154.362 95.6544C154 95.5755 153.654 95.4305 153.344 95.2264C152.609 94.8222 152.325 94.632 152.372 94.4894C152.437 94.1752 152.484 93.8576 152.514 93.5382V92.7773L151.732 93.3718L150.974 93.99L150.027 93.4908C149.505 93.2292 149.126 92.9439 149.15 92.8725C149.649 92.4085 150.179 91.9794 150.737 91.5885C152.562 90.2094 152.562 90.2333 152.68 87.7842C152.682 87.2422 152.729 86.7013 152.822 86.1674L153.865 86.643ZM187.272 87.6892C187.628 88.3312 187.675 88.4738 187.509 88.5689L187.012 88.9255L186.704 89.1871L187.96 91.5648C188.647 92.9439 189.192 94.1327 189.192 94.204C188.931 94.4509 188.625 94.6446 188.291 94.7747L187.415 95.2264L186.111 92.6585L184.808 90.0907H184.382L183.79 90.2333C183.79 90.2333 183.458 89.948 183.221 89.4487L182.818 88.6164L184.714 87.6654C185.756 87.1423 186.656 86.7143 186.704 86.7143C186.751 86.7143 187.059 87.3563 187.296 87.7842L187.272 87.6892ZM161.423 90.0669C162.423 90.2649 163.378 90.6435 164.243 91.1843C164.697 91.5729 164.989 92.1195 165.059 92.7146C165.129 93.3098 164.973 93.9098 164.622 94.3943C164.171 95.3454 163.674 95.6068 162.252 95.6306H161.21L160.902 96.7244C160.712 97.3188 160.57 97.8419 160.546 97.8656C159.918 97.8128 159.297 97.6851 158.698 97.4853C158.791 96.2487 159.03 95.0275 159.409 93.8473C160.452 89.4962 160.357 89.7815 160.546 89.8766L161.423 90.0669ZM179.501 90.4472C179.838 90.5846 180.142 90.7912 180.395 91.0537C180.647 91.3162 180.842 91.6287 180.967 91.9713C181.092 92.3139 181.144 92.679 181.12 93.0431C181.096 93.4071 180.997 93.7621 180.828 94.0852C180.704 94.2546 180.601 94.4382 180.52 94.632C180.837 95.0988 181.186 95.5436 181.562 95.9635C181.935 96.3692 182.261 96.8159 182.534 97.295C181.891 97.5266 181.234 97.7172 180.567 97.8656C180.216 97.4966 179.906 97.0899 179.643 96.653C179.391 96.2362 179.097 95.8459 178.767 95.4879C178.796 95.8984 178.867 96.3048 178.98 96.7006C179.089 97.1316 179.177 97.5681 179.24 98.0083C179.24 98.0083 178.885 98.2699 178.269 98.4126C177.944 98.5062 177.611 98.5698 177.274 98.6027C177.274 98.6027 176.847 96.8909 176.35 94.8223C175.954 93.5871 175.7 92.3107 175.592 91.0179C175.852 91.0179 178.53 90.3522 178.79 90.3284C179.023 90.3393 179.254 90.3792 179.477 90.4472H179.501ZM172.393 92.2543V93.1102H171.919H171.019C170.616 93.1102 170.592 93.1103 170.64 93.5858C170.687 94.0614 170.64 94.0614 171.114 94.109C172.132 94.109 172.132 94.1089 172.132 95.0838V95.8923H171.374C170.616 95.8923 170.616 95.8922 170.569 96.4391C170.521 96.9859 170.569 96.9621 170.569 97.0097C170.859 97.0568 171.155 97.0568 171.445 97.0097H172.369V98.793H168.697V96.8908C168.606 94.9561 168.653 93.0172 168.839 91.0893C169.461 91.0219 170.089 91.0219 170.711 91.0893H172.512L172.393 92.2543Z" fill="#006938" style="fill:#006938;fill:color(display-p3 0.0000 0.4118 0.2196);fill-opacity:1;"/>
<path d="M162.086 92.5874C161.802 93.7762 161.802 93.7762 162.086 93.7762C162.314 93.7268 162.522 93.6095 162.683 93.4398C162.843 93.2702 162.949 93.056 162.987 92.8251C162.987 92.4684 162.702 92.1118 162.418 92.1118C162.134 92.1118 162.157 92.2545 162.086 92.5874Z" fill="#006938" style="fill:#006938;fill:color(display-p3 0.0000 0.4118 0.2196);fill-opacity:1;"/>
<path d="M178.103 92.2544C178.139 92.8315 178.259 93.4003 178.458 93.9426C178.458 93.9426 178.672 93.9426 178.838 93.7999C178.942 93.7371 179.027 93.6455 179.081 93.536C179.136 93.4264 179.158 93.3035 179.146 93.1817C179.146 92.7062 179.146 92.5398 178.672 92.3258C178.198 92.1118 178.198 92.0642 178.103 92.2544Z" fill="#006938" style="fill:#006938;fill:color(display-p3 0.0000 0.4118 0.2196);fill-opacity:1;"/>
<path d="M209.781 86.7144C208.307 88.6796 206.725 90.5608 205.042 92.3495C196.741 101.095 185.488 106.419 173.483 107.282H172.488V113.273L173.98 114.272C175.761 115.547 177.621 116.706 179.549 117.743C180.143 117.915 180.781 117.847 181.326 117.553C181.491 117.553 182.889 115.651 184.429 113.582C187.391 109.612 187.723 109.279 188.813 109.041C189.523 108.875 189.5 108.875 194.641 110.111C196.845 110.658 198.787 111.086 198.977 111.086C199.296 111.054 199.606 110.958 199.887 110.802C200.168 110.647 200.414 110.436 200.612 110.182C200.754 109.944 201.465 107.805 202.152 105.427C202.61 103.816 203.148 102.229 203.763 100.671C204.183 100.044 204.814 99.5886 205.54 99.3876C206.038 99.2211 213.548 98.3652 214.544 98.3652C215.539 98.3652 227.765 100.434 232.385 101.432C237.005 102.431 243.189 104.095 250.605 106.33C254.206 107.4 254.064 107.377 254.467 107.067C254.575 106.985 254.662 106.879 254.723 106.758C254.783 106.636 254.814 106.502 254.814 106.366C254.814 106.23 254.783 106.096 254.723 105.974C254.662 105.853 254.575 105.747 254.467 105.665C250.533 103.199 246.476 100.937 242.312 98.8882C236.477 95.9404 230.472 93.3442 224.329 91.1132C219.59 89.3537 210.539 86.0962 210.373 86.0962C210.208 86.0962 209.994 86.3815 209.781 86.7144Z" fill="#006938" style="fill:#006938;fill:color(display-p3 0.0000 0.4118 0.2196);fill-opacity:1;"/>
<path d="M127.992 86.9997C126.878 87.4277 124.532 88.2124 122.755 88.7355C113.44 91.4775 104.386 95.0421 95.6976 99.3875C92.143 101.101 88.6791 102.998 85.3199 105.07C85.2001 105.282 85.1274 105.517 85.1067 105.76C85.1067 106.235 85.1066 106.283 85.5094 106.497L85.9833 106.711L89.8927 105.593C100.464 102.441 111.26 100.104 122.187 98.6029C125.48 98.1511 125.196 98.1273 131.522 98.912C134.578 99.2924 134.981 99.3637 135.502 99.6728C136.279 100.147 136.84 100.906 137.066 101.789L138.393 106.33C139.554 110.301 139.673 110.563 140.478 111.086C141.284 111.609 141.781 111.276 146.354 110.159C150.927 109.041 151.282 109.041 152.372 109.588C153.083 109.968 153.225 110.135 156.282 114.343C157.123 115.536 158.033 116.679 159.006 117.767C159.305 117.995 159.664 118.131 160.039 118.156C160.414 118.181 160.788 118.096 161.115 117.91C161.447 117.743 163.224 116.602 165.095 115.366L168.484 113.131V107.614H167.323C163.358 107.225 159.444 106.429 155.642 105.237C145.832 102.045 137.27 95.8401 131.167 87.4991C130.914 87.0975 130.593 86.7434 130.219 86.4529C130.219 86.4529 129.105 86.5955 127.992 86.9997Z" fill="#006938" style="fill:#006938;fill:color(display-p3 0.0000 0.4118 0.2196);fill-opacity:1;"/>
<g clip-path="url(#clip1_4_7519)">
<path d="M209.427 106.005H208.808V107.386H208.031V103.614H209.433C209.878 103.614 210.222 103.713 210.464 103.912C210.706 104.11 210.827 104.391 210.827 104.754C210.827 105.011 210.771 105.226 210.66 105.398C210.548 105.57 210.379 105.706 210.153 105.808L210.969 107.35V107.386H210.135L209.427 106.005ZM208.808 105.376H209.435C209.63 105.376 209.781 105.326 209.889 105.227C209.996 105.127 210.049 104.99 210.049 104.816C210.049 104.641 209.999 104.498 209.898 104.396C209.797 104.294 209.642 104.243 209.433 104.243H208.808V105.376V105.376Z" fill="#006938" style="fill:#006938;fill:color(display-p3 0.0000 0.4118 0.2196);fill-opacity:1;"/>
<path fill-rule="evenodd" clip-rule="evenodd" d="M209.5 108.417C211.111 108.417 212.417 107.111 212.417 105.5C212.417 103.889 211.111 102.583 209.5 102.583C207.889 102.583 206.583 103.889 206.583 105.5C206.583 107.111 207.889 108.417 209.5 108.417ZM209.5 109C211.433 109 213 107.433 213 105.5C213 103.567 211.433 102 209.5 102C207.567 102 206 103.567 206 105.5C206 107.433 207.567 109 209.5 109Z" fill="#006938" style="fill:#006938;fill:color(display-p3 0.0000 0.4118 0.2196);fill-opacity:1;"/>
</g>
</g>
<defs>
<clipPath id="clip0_4_7519">
<rect width="340" height="117.91" fill="white" style="fill:white;fill-opacity:1;"/>
</clipPath>
<clipPath id="clip1_4_7519">
<rect width="7" height="7" fill="white" style="fill:white;fill-opacity:1;" transform="translate(206 102)"/>
</clipPath>
</defs>
</svg>
